<?xml version="1.0" encoding="UTF-8" standalone="no"?>
<svg
   xmlns:dc="http://purl.org/dc/elements/1.1/"
   xmlns:cc="http://creativecommons.org/ns#"
   xmlns:rdf="http://www.w3.org/1999/02/22-rdf-syntax-ns#"
   xmlns:svg="http://www.w3.org/2000/svg"
   xmlns="http://www.w3.org/2000/svg"
   xmlns:xlink="http://www.w3.org/1999/xlink"
   xmlns:sodipodi="http://sodipodi.sourceforge.net/DTD/sodipodi-0.dtd"
   xmlns:inkscape="http://www.inkscape.org/namespaces/inkscape"
   inkscape:version="1.0 (4035a4fb49, 2020-05-01)"
   sodipodi:docname="2020-06-26_Figure3-KDvsPtWith5pctError_SS1.svg"
   id="svg3636"
   width="518.4pt"
   viewBox="0 0 518.4 366.48"
   version="1.1"
   height="366.48pt">
  <metadata
     id="metadata3640">
    <rdf:RDF>
      <cc:Work
         rdf:about="">
        <dc:format>image/svg+xml</dc:format>
        <dc:type
           rdf:resource="http://purl.org/dc/dcmitype/StillImage" />
      </cc:Work>
    </rdf:RDF>
  </metadata>
  <sodipodi:namedview
     inkscape:current-layer="svg3636"
     inkscape:window-maximized="1"
     inkscape:window-y="-12"
     inkscape:window-x="-12"
     inkscape:cy="237.38096"
     inkscape:cx="111.57149"
     inkscape:zoom="2.6134471"
     inkscape:snap-midpoints="true"
     inkscape:snap-intersection-paths="true"
     inkscape:object-paths="true"
     inkscape:snap-bbox-edge-midpoints="true"
     inkscape:snap-bbox="false"
     showgrid="false"
     id="namedview3638"
     inkscape:window-height="2050"
     inkscape:window-width="3840"
     inkscape:pageshadow="2"
     inkscape:pageopacity="0"
     guidetolerance="10"
     gridtolerance="10"
     objecttolerance="10"
     borderopacity="1"
     bordercolor="#666666"
     pagecolor="#ffffff"
     inkscape:document-rotation="0" />
  <defs
     id="defs3184">
    <style
       id="style3182"
       type="text/css">
*{stroke-linecap:butt;stroke-linejoin:round;}
  </style>
    <path
       d="M 8.59375,75.984375 H 29.296875 V 69 H 17.578125 V -6.203125 h 11.71875 V -13.1875 H 8.59375 Z"
       id="DejaVuSans-91-6" />
    <path
       d="m 18.3125,75.984375 h 8.984375 L 12.5,0 H 3.515625 Z"
       id="DejaVuSans-Oblique-108" />
    <path
       d="m 8.5,54.6875 h 8.890625 l 2.28125,-44 20.421875,44 h 10.390625 l 3.03125,-44 19.390625,44 h 8.984375 L 56.890625,0 h -10.5 L 43.703125,45.3125 22.796875,0 h -10.59375 z"
       id="DejaVuSans-Oblique-119" />
    <path
       d="M 55.71875,33.015625 49.3125,0 h -9.03125 l 6.40625,32.671875 q 0.4375,2.296875 0.671875,4.046875 0.25,1.765625 0.25,2.78125 0,4.109375 -2.59375,6.390625 -2.578125,2.296875 -7.21875,2.296875 -7.234375,0 -12.53125,-4.890625 -5.296875,-4.875 -6.859375,-12.96875 L 12.5,0 H 3.515625 L 18.3125,75.984375 h 8.984375 l -5.8125,-29.890625 q 3.421875,4.59375 8.734375,7.25 Q 35.546875,56 41.40625,56 q 7.234375,0 11.203125,-3.90625 3.984375,-3.90625 3.984375,-10.984375 0,-1.75 -0.21875,-3.75 -0.21875,-2 -0.65625,-4.34375 z"
       id="DejaVuSans-Oblique-104" />
    <path
       d="m 18.3125,75.984375 h 8.984375 L 25.09375,64.59375 H 16.109375 Z M 14.203125,54.6875 H 23.1875 L 12.5,0 H 3.515625 Z"
       id="DejaVuSans-Oblique-105" />
    <path
       d="M 42.28125,54.6875 40.921875,47.703125 H 23 l -5.8125,-29.6875 q -0.296875,-1.65625 -0.4375,-2.78125 -0.140625,-1.125 -0.140625,-1.75 0,-3.125 1.875,-4.546875 1.875,-1.421875 6.03125,-1.421875 H 33.59375 L 32.078125,0 h -8.59375 q -8,0 -11.9375,3.125 Q 7.625,6.25 7.625,12.59375 q 0,1.125 0.140625,2.46875 0.140625,1.34375 0.4375,2.953125 l 5.8125,29.6875 h -7.625 L 7.8125,54.6875 h 7.46875 l 3.03125,15.53125 h 8.984375 L 24.3125,54.6875 Z"
       id="DejaVuSans-Oblique-116" />
    <path
       d="m 48.09375,32.234375 q 0.15625,0.78125 0.21875,1.609375 0.07813,0.828125 0.07813,1.65625 0,5.953125 -3.5,9.421875 -3.484375,3.46875 -9.484375,3.46875 -6.6875,0 -11.828125,-4.234375 -5.125,-4.21875 -7.75,-11.984375 z m 7.8125,-7.03125 H 14.109375 Q 13.8125,23.34375 13.71875,22.265625 13.625,21.1875 13.625,20.40625 q 0,-6.78125 4.171875,-10.5 4.171875,-3.703125 11.796875,-3.703125 5.859375,0 11.078125,1.3125 5.234375,1.328125 9.71875,3.859375 L 48.6875,2.484375 q -4.84375,-1.953125 -10,-2.921875 -5.140625,-0.984375 -10.46875,-0.984375 -11.375,0 -17.5,5.4375 -6.125,5.453125 -6.125,15.46875 0,8.546875 3.046875,15.890625 3.046875,7.34375 8.96875,13.109375 3.796875,3.609375 9.046875,5.5625 Q 30.90625,56 36.8125,56 q 9.28125,0 14.765625,-5.5625 5.5,-5.5625 5.5,-14.9375 0,-2.25 -0.296875,-4.8125 Q 56.5,28.125 55.90625,25.203125 Z"
       id="DejaVuSans-Oblique-101" />
    <path
       d="M 30.421875,75.984375 V -13.1875 H 9.71875 v 6.984375 H 21.390625 V 69 H 9.71875 v 6.984375 z"
       id="DejaVuSans-93-2" />
  </defs>
  <g
     id="matplotlib.axis_1">
    <g
       id="xtick_1">
      <g
         id="line2d_1">
        <path
           id="path3192"
           style="fill:none;stroke:#b0b0b0;stroke-width:0.8;stroke-linecap:square"
           d="M 47.868593,320.2386 V 10.790991"
           clip-path="url(#p2bddff9c0e)" />
      </g>
      <g
         id="line2d_2">
        <defs
           id="defs3196">
          <path
             style="stroke:#000000;stroke-width:0.8"
             id="m79f395476a"
             d="M 0,0 V 3.5" />
        </defs>
        <g
           id="g3200">
          <use
             height="100%"
             width="100%"
             id="use3198"
             y="320.23862"
             xlink:href="#m79f395476a"
             x="47.868591"
             style="stroke:#000000;stroke-width:0.8" />
        </g>
      </g>
      <g
         id="text_1">
        <!-- 0 -->
        <defs
           id="defs3204">
          <path
             id="DejaVuSans-48"
             d="m 31.78125,66.40625 q -7.609375,0 -11.453125,-7.5 Q 16.5,51.421875 16.5,36.375 q 0,-14.984375 3.828125,-22.484375 3.84375,-7.5 11.453125,-7.5 7.671875,0 11.5,7.5 3.84375,7.5 3.84375,22.484375 0,15.046875 -3.84375,22.53125 -3.828125,7.5 -11.5,7.5 z m 0,7.8125 q 12.265625,0 18.734375,-9.703125 6.46875,-9.6875 6.46875,-28.140625 0,-18.40625 -6.46875,-28.109375 -6.46875,-9.6875 -18.734375,-9.6875 -12.25,0 -18.71875,9.6875 Q 6.59375,17.96875 6.59375,36.375 q 0,18.453125 6.46875,28.140625 6.46875,9.703125 18.71875,9.703125 z" />
        </defs>
        <g
           id="g3208"
           transform="matrix(0.12,0,0,-0.12,44.051093,336.35673)">
          <use
             height="100%"
             width="100%"
             y="0"
             x="0"
             id="use3206"
             xlink:href="#DejaVuSans-48" />
        </g>
      </g>
    </g>
    <g
       id="xtick_2">
      <g
         id="line2d_3">
        <path
           id="path3212"
           style="fill:none;stroke:#b0b0b0;stroke-width:0.8;stroke-linecap:square"
           d="M 137.52279,320.2386 V 10.790991"
           clip-path="url(#p2bddff9c0e)" />
      </g>
      <g
         id="line2d_4">
        <g
           id="g3217">
          <use
             height="100%"
             width="100%"
             id="use3215"
             y="320.23862"
             xlink:href="#m79f395476a"
             x="137.5228"
             style="stroke:#000000;stroke-width:0.8" />
        </g>
      </g>
      <g
         id="text_2">
        <!-- 100 -->
        <defs
           id="defs3221">
          <path
             id="DejaVuSans-49"
             d="m 12.40625,8.296875 h 16.109375 v 55.625 L 10.984375,60.40625 v 8.984375 l 17.4375,3.515625 H 38.28125 V 8.296875 H 54.390625 V 0 H 12.40625 Z" />
        </defs>
        <g
           id="g3229"
           transform="matrix(0.12,0,0,-0.12,126.0703,336.35673)">
          <use
             height="100%"
             width="100%"
             y="0"
             x="0"
             id="use3223"
             xlink:href="#DejaVuSans-49" />
          <use
             height="100%"
             width="100%"
             y="0"
             id="use3225"
             xlink:href="#DejaVuSans-48"
             x="63.623047" />
          <use
             height="100%"
             width="100%"
             y="0"
             id="use3227"
             xlink:href="#DejaVuSans-48"
             x="127.24609" />
        </g>
      </g>
    </g>
    <g
       id="xtick_3">
      <g
         id="line2d_5">
        <path
           id="path3233"
           style="fill:none;stroke:#b0b0b0;stroke-width:0.8;stroke-linecap:square"
           d="M 227.177,320.2386 V 10.790991"
           clip-path="url(#p2bddff9c0e)" />
      </g>
      <g
         id="line2d_6">
        <g
           id="g3238">
          <use
             height="100%"
             width="100%"
             id="use3236"
             y="320.23862"
             xlink:href="#m79f395476a"
             x="227.177"
             style="stroke:#000000;stroke-width:0.8" />
        </g>
      </g>
      <g
         id="text_3">
        <!-- 200 -->
        <defs
           id="defs3242">
          <path
             id="DejaVuSans-50"
             d="M 19.1875,8.296875 H 53.609375 V 0 H 7.328125 v 8.296875 q 5.609375,5.8125 15.296875,15.59375 9.703125,9.796875 12.1875,12.640625 4.734375,5.3125 6.609375,9 1.890625,3.6875 1.890625,7.25 0,5.8125 -4.078125,9.46875 -4.078125,3.671875 -10.625,3.671875 -4.640625,0 -9.796875,-1.609375 -5.140625,-1.609375 -11,-4.890625 v 9.96875 Q 13.765625,71.78125 18.9375,73 q 5.1875,1.21875 9.484375,1.21875 11.328125,0 18.0625,-5.671875 6.734375,-5.65625 6.734375,-15.125 0,-4.5 -1.6875,-8.53125 Q 49.859375,40.875 45.40625,35.40625 44.1875,33.984375 37.640625,27.21875 31.109375,20.453125 19.1875,8.296875 Z" />
        </defs>
        <g
           id="g3250"
           transform="matrix(0.12,0,0,-0.12,215.7245,336.35673)">
          <use
             height="100%"
             width="100%"
             y="0"
             x="0"
             id="use3244"
             xlink:href="#DejaVuSans-50" />
          <use
             height="100%"
             width="100%"
             y="0"
             id="use3246"
             xlink:href="#DejaVuSans-48"
             x="63.623047" />
          <use
             height="100%"
             width="100%"
             y="0"
             id="use3248"
             xlink:href="#DejaVuSans-48"
             x="127.24609" />
        </g>
      </g>
    </g>
    <g
       id="xtick_4">
      <g
         id="line2d_7">
        <path
           id="path3254"
           style="fill:none;stroke:#b0b0b0;stroke-width:0.8;stroke-linecap:square"
           d="M 316.8312,320.2386 V 10.790991"
           clip-path="url(#p2bddff9c0e)" />
      </g>
      <g
         id="line2d_8">
        <g
           id="g3259">
          <use
             height="100%"
             width="100%"
             id="use3257"
             y="320.23862"
             xlink:href="#m79f395476a"
             x="316.83121"
             style="stroke:#000000;stroke-width:0.8" />
        </g>
      </g>
      <g
         id="text_4">
        <!-- 300 -->
        <defs
           id="defs3263">
          <path
             id="DejaVuSans-51"
             d="M 40.578125,39.3125 Q 47.65625,37.796875 51.625,33 q 3.984375,-4.78125 3.984375,-11.8125 0,-10.78125 -7.421875,-16.703125 -7.421875,-5.90625 -21.09375,-5.90625 -4.578125,0 -9.4375,0.90625 -4.859375,0.90625 -10.03125,2.71875 v 9.515625 q 4.09375,-2.390625 8.96875,-3.609375 4.890625,-1.21875 10.21875,-1.21875 9.265625,0 14.125,3.65625 4.859375,3.65625 4.859375,10.640625 0,6.453125 -4.515625,10.078125 -4.515625,3.640625 -12.5625,3.640625 h -8.5 v 8.109375 h 8.890625 q 7.265625,0 11.125,2.90625 3.859375,2.90625 3.859375,8.375 0,5.609375 -3.984375,8.609375 -3.96875,3.015625 -11.390625,3.015625 -4.0625,0 -8.703125,-0.890625 Q 15.375,64.15625 9.8125,62.3125 v 8.78125 q 5.625,1.5625 10.53125,2.34375 4.90625,0.78125 9.25,0.78125 11.234375,0 17.765625,-5.109375 6.546875,-5.09375 6.546875,-13.78125 0,-6.0625 -3.46875,-10.234375 -3.46875,-4.171875 -9.859375,-5.78125 z" />
        </defs>
        <g
           id="g3271"
           transform="matrix(0.12,0,0,-0.12,305.3787,336.35673)">
          <use
             height="100%"
             width="100%"
             y="0"
             x="0"
             id="use3265"
             xlink:href="#DejaVuSans-51" />
          <use
             height="100%"
             width="100%"
             y="0"
             id="use3267"
             xlink:href="#DejaVuSans-48"
             x="63.623047" />
          <use
             height="100%"
             width="100%"
             y="0"
             id="use3269"
             xlink:href="#DejaVuSans-48"
             x="127.24609" />
        </g>
      </g>
    </g>
    <g
       id="xtick_5">
      <g
         id="line2d_9">
        <path
           id="path3275"
           style="fill:none;stroke:#b0b0b0;stroke-width:0.8;stroke-linecap:square"
           d="M 406.4854,320.2386 V 10.790991"
           clip-path="url(#p2bddff9c0e)" />
      </g>
      <g
         id="line2d_10">
        <g
           id="g3280">
          <use
             height="100%"
             width="100%"
             id="use3278"
             y="320.23862"
             xlink:href="#m79f395476a"
             x="406.48541"
             style="stroke:#000000;stroke-width:0.8" />
        </g>
      </g>
      <g
         id="text_5">
        <!-- 400 -->
        <defs
           id="defs3284">
          <path
             id="DejaVuSans-52"
             d="M 37.796875,64.3125 12.890625,25.390625 h 24.90625 z m -2.59375,8.59375 h 12.40625 V 25.390625 h 10.40625 V 17.1875 H 47.609375 V 0 h -9.8125 V 17.1875 H 4.890625 v 9.515625 z" />
        </defs>
        <g
           id="g3292"
           transform="matrix(0.12,0,0,-0.12,395.0329,336.35673)">
          <use
             height="100%"
             width="100%"
             y="0"
             x="0"
             id="use3286"
             xlink:href="#DejaVuSans-52" />
          <use
             height="100%"
             width="100%"
             y="0"
             id="use3288"
             xlink:href="#DejaVuSans-48"
             x="63.623047" />
          <use
             height="100%"
             width="100%"
             y="0"
             id="use3290"
             xlink:href="#DejaVuSans-48"
             x="127.24609" />
        </g>
      </g>
    </g>
    <g
       id="xtick_6">
      <g
         id="line2d_11">
        <path
           id="path3296"
           style="fill:none;stroke:#b0b0b0;stroke-width:0.8;stroke-linecap:square"
           d="M 496.13961,320.2386 V 10.790991"
           clip-path="url(#p2bddff9c0e)" />
      </g>
      <g
         id="line2d_12">
        <g
           id="g3301">
          <use
             height="100%"
             width="100%"
             id="use3299"
             y="320.23862"
             xlink:href="#m79f395476a"
             x="496.13962"
             style="stroke:#000000;stroke-width:0.8" />
        </g>
      </g>
      <g
         id="text_6">
        <!-- 500 -->
        <defs
           id="defs3305">
          <path
             id="DejaVuSans-53"
             d="m 10.796875,72.90625 h 38.71875 v -8.3125 h -29.6875 V 46.734375 q 2.140625,0.734375 4.28125,1.09375 2.15625,0.359375 4.3125,0.359375 Q 40.625,48.1875 47.75,41.5 54.890625,34.8125 54.890625,23.390625 54.890625,11.625 47.5625,5.09375 40.234375,-1.421875 26.90625,-1.421875 q -4.59375,0 -9.359375,0.78125 -4.75,0.78125 -9.828125,2.34375 V 11.625 q 4.390625,-2.390625 9.078125,-3.5625 4.6875,-1.171875 9.90625,-1.171875 8.453125,0 13.375,4.4375 4.9375,4.4375 4.9375,12.0625 0,7.609375 -4.9375,12.046875 -4.921875,4.453125 -13.375,4.453125 -3.953125,0 -7.890625,-0.875 -3.921875,-0.875 -8.015625,-2.734375 z" />
        </defs>
        <g
           id="g3313"
           transform="matrix(0.12,0,0,-0.12,484.6871,336.35673)">
          <use
             height="100%"
             width="100%"
             y="0"
             x="0"
             id="use3307"
             xlink:href="#DejaVuSans-53" />
          <use
             height="100%"
             width="100%"
             y="0"
             id="use3309"
             xlink:href="#DejaVuSans-48"
             x="63.623047" />
          <use
             height="100%"
             width="100%"
             y="0"
             id="use3311"
             xlink:href="#DejaVuSans-48"
             x="127.24609" />
        </g>
      </g>
    </g>
    <g
       id="text_7">
      <!-- Compound K$_\mathrm{D}$ (µM) -->
      <defs
         id="defs3331">
        <path
           id="DejaVuSans-67"
           d="M 64.40625,67.28125 V 56.890625 q -4.984375,4.640625 -10.625,6.921875 -5.640625,2.296875 -11.984375,2.296875 -12.5,0 -19.140625,-7.640625 -6.640625,-7.640625 -6.640625,-22.09375 0,-14.40625 6.640625,-22.046875 Q 29.296875,6.6875 41.796875,6.6875 q 6.34375,0 11.984375,2.296875 5.640625,2.296875 10.625,6.9375 V 5.609375 Q 59.234375,2.09375 53.4375,0.328125 q -5.78125,-1.75 -12.21875,-1.75 -16.5625,0 -26.09375,10.125 Q 5.609375,18.84375 5.609375,36.375 q 0,17.578125 9.515625,27.703125 9.53125,10.140625 26.09375,10.140625 6.53125,0 12.3125,-1.734375 5.796875,-1.734375 10.875,-5.203125 z" />
        <path
           id="DejaVuSans-111"
           d="m 30.609375,48.390625 q -7.21875,0 -11.421875,-5.640625 -4.203125,-5.640625 -4.203125,-15.453125 0,-9.8125 4.171875,-15.453125 4.1875,-5.640625 11.453125,-5.640625 7.1875,0 11.375,5.65625 4.203125,5.671875 4.203125,15.4375 0,9.71875 -4.203125,15.40625 -4.1875,5.6875 -11.375,5.6875 z m 0,7.609375 q 11.71875,0 18.40625,-7.625 6.703125,-7.609375 6.703125,-21.078125 0,-13.421875 -6.703125,-21.078125 -6.6875,-7.640625 -18.40625,-7.640625 -11.765625,0 -18.4375,7.640625 -6.65625,7.65625 -6.65625,21.078125 0,13.46875 6.65625,21.078125 Q 18.84375,56 30.609375,56 Z" />
        <path
           id="DejaVuSans-109"
           d="M 52,44.1875 Q 55.375,50.25 60.0625,53.125 64.75,56 71.09375,56 q 8.546875,0 13.1875,-5.984375 4.640625,-5.96875 4.640625,-17 V 0 h -9.03125 v 32.71875 q 0,7.859375 -2.796875,11.65625 -2.78125,3.8125 -8.484375,3.8125 -6.984375,0 -11.046875,-4.640625 -4.046875,-4.625 -4.046875,-12.640625 V 0 h -9.03125 v 32.71875 q 0,7.90625 -2.78125,11.6875 -2.78125,3.78125 -8.59375,3.78125 -6.890625,0 -10.953125,-4.65625 -4.046875,-4.65625 -4.046875,-12.625 V 0 h -9.03125 v 54.6875 h 9.03125 v -8.5 q 3.078125,5.03125 7.375,7.421875 Q 29.78125,56 35.6875,56 41.65625,56 45.828125,52.96875 50,49.953125 52,44.1875 Z" />
        <path
           id="DejaVuSans-112"
           d="m 18.109375,8.203125 v -29 H 9.078125 V 54.6875 h 9.03125 v -8.296875 q 2.84375,4.875 7.15625,7.234375 Q 29.59375,56 35.59375,56 q 9.96875,0 16.1875,-7.90625 6.234375,-7.90625 6.234375,-20.796875 0,-12.890625 -6.234375,-20.8125 -6.21875,-7.90625 -16.1875,-7.90625 -6,0 -10.328125,2.375 -4.3125,2.375 -7.15625,7.25 z M 48.6875,27.296875 q 0,9.90625 -4.078125,15.546875 -4.078125,5.640625 -11.203125,5.640625 -7.140625,0 -11.21875,-5.640625 -4.078125,-5.640625 -4.078125,-15.546875 0,-9.90625 4.078125,-15.546875 4.078125,-5.640625 11.21875,-5.640625 7.125,0 11.203125,5.640625 4.078125,5.640625 4.078125,15.546875 z" />
        <path
           id="DejaVuSans-117"
           d="M 8.5,21.578125 V 54.6875 h 8.984375 V 21.921875 q 0,-7.765625 3.015625,-11.65625 3.03125,-3.875 9.09375,-3.875 7.265625,0 11.484375,4.640625 4.234375,4.640625 4.234375,12.65625 v 31 h 8.984375 V 0 H 45.3125 V 8.40625 Q 42.046875,3.421875 37.71875,1 33.40625,-1.421875 27.6875,-1.421875 18.265625,-1.421875 13.375,4.4375 8.5,10.296875 8.5,21.578125 Z M 31.109375,56 Z" />
        <path
           id="DejaVuSans-110"
           d="M 54.890625,33.015625 V 0 H 45.90625 v 32.71875 q 0,7.765625 -3.03125,11.609375 -3.03125,3.859375 -9.078125,3.859375 -7.28125,0 -11.484375,-4.640625 -4.203125,-4.625 -4.203125,-12.640625 V 0 h -9.03125 v 54.6875 h 9.03125 v -8.5 q 3.234375,4.9375 7.59375,7.375 4.375,2.4375 10.09375,2.4375 9.421875,0 14.25,-5.828125 4.84375,-5.828125 4.84375,-17.15625 z" />
        <path
           id="DejaVuSans-100"
           d="m 45.40625,46.390625 v 29.59375 h 8.984375 V 0 H 45.40625 v 8.203125 q -2.828125,-4.875 -7.15625,-7.25 -4.3125,-2.375 -10.375,-2.375 -9.90625,0 -16.140625,7.90625 -6.21875,7.921875 -6.21875,20.8125 0,12.890625 6.21875,20.796875 Q 17.96875,56 27.875,56 q 6.0625,0 10.375,-2.375 4.328125,-2.359375 7.15625,-7.234375 z M 14.796875,27.296875 q 0,-9.90625 4.078125,-15.546875 4.078125,-5.640625 11.203125,-5.640625 7.125,0 11.21875,5.640625 4.109375,5.640625 4.109375,15.546875 0,9.90625 -4.109375,15.546875 -4.09375,5.640625 -11.21875,5.640625 -7.125,0 -11.203125,-5.640625 -4.078125,-5.640625 -4.078125,-15.546875 z" />
        <path
           d=""
           id="DejaVuSans-32" />
        <path
           id="DejaVuSans-75"
           d="m 9.8125,72.90625 h 9.859375 v -30.8125 l 32.71875,30.8125 H 65.09375 L 28.90625,38.921875 67.671875,0 H 54.6875 L 19.671875,35.109375 V 0 H 9.8125 Z" />
        <path
           id="DejaVuSans-68"
           d="M 19.671875,64.796875 V 8.109375 H 31.59375 q 15.09375,0 22.09375,6.828125 7,6.84375 7,21.59375 0,14.640625 -7,21.453125 -7,6.8125 -22.09375,6.8125 z M 9.8125,72.90625 h 20.265625 q 21.1875,0 31.09375,-8.8125 9.921875,-8.8125 9.921875,-27.5625 0,-18.859375 -9.96875,-27.703125 Q 51.171875,0 30.078125,0 H 9.8125 Z" />
        <path
           id="DejaVuSans-40"
           d="M 31,75.875 Q 24.46875,64.65625 21.28125,53.65625 18.109375,42.671875 18.109375,31.390625 18.109375,20.125 21.3125,9.0625 24.515625,-2 31,-13.1875 H 23.1875 Q 15.875,-1.703125 12.234375,9.375 8.59375,20.453125 8.59375,31.390625 q 0,10.890625 3.609375,21.921875 3.625,11.046875 10.984375,22.5625 z" />
        <path
           id="DejaVuSans-181"
           d="M 8.5,-20.796875 V 54.6875 h 8.984375 V 20.703125 Q 17.484375,13.625 20.84375,10 q 3.375,-3.609375 9.96875,-3.609375 7.21875,0 10.859375,4.09375 3.640625,4.109375 3.640625,12.3125 V 54.6875 h 8.984375 V 12.59375 q 0,-2.921875 0.84375,-4.3125 Q 56,6.890625 57.8125,6.890625 q 0.4375,0 1.21875,0.265625 0.78125,0.265625 2.15625,0.859375 V 0.78125 q -2,-1.125 -3.796875,-1.65625 -1.78125,-0.546875 -3.484375,-0.546875 -3.375,0 -5.375,1.90625 -2,1.90625 -2.734375,5.8125 Q 43.359375,2.4375 39.8125,0.5 36.28125,-1.421875 31.5,-1.421875 q -4.984375,0 -8.484375,1.90625 -3.484375,1.90625 -5.53125,5.71875 v -27 z" />
        <path
           id="DejaVuSans-77"
           d="M 9.8125,72.90625 H 24.515625 L 43.109375,23.296875 61.8125,72.90625 H 76.515625 V 0 h -9.625 v 64.015625 l -18.796875,-50 H 38.1875 l -18.796875,50 V 0 H 9.8125 Z" />
        <path
           id="DejaVuSans-41"
           d="m 8.015625,75.875 h 7.8125 q 7.3125,-11.515625 10.953125,-22.5625 3.640625,-11.03125 3.640625,-21.921875 0,-10.9375 -3.640625,-22.015625 -3.640625,-11.078125 -10.953125,-22.5625 h -7.8125 Q 14.5,-2 17.703125,9.0625 20.90625,20.125 20.90625,31.390625 q 0,11.28125 -3.203125,22.265625 -3.203125,11 -9.6875,22.21875 z" />
      </defs>
      <g
         id="g3365"
         transform="matrix(0.12,0,0,-0.12,214.5241,351.97235)">
        <use
           height="100%"
           width="100%"
           y="0"
           x="0"
           id="use3333"
           xlink:href="#DejaVuSans-67"
           transform="translate(0,0.015625)" />
        <use
           height="100%"
           width="100%"
           y="0"
           x="0"
           id="use3335"
           xlink:href="#DejaVuSans-111"
           transform="translate(69.824219,0.015625)" />
        <use
           height="100%"
           width="100%"
           y="0"
           x="0"
           id="use3337"
           xlink:href="#DejaVuSans-109"
           transform="translate(131.00586,0.015625)" />
        <use
           height="100%"
           width="100%"
           y="0"
           x="0"
           id="use3339"
           xlink:href="#DejaVuSans-112"
           transform="translate(228.41797,0.015625)" />
        <use
           height="100%"
           width="100%"
           y="0"
           x="0"
           id="use3341"
           xlink:href="#DejaVuSans-111"
           transform="translate(291.89453,0.015625)" />
        <use
           height="100%"
           width="100%"
           y="0"
           x="0"
           id="use3343"
           xlink:href="#DejaVuSans-117"
           transform="translate(353.07617,0.015625)" />
        <use
           height="100%"
           width="100%"
           y="0"
           x="0"
           id="use3345"
           xlink:href="#DejaVuSans-110"
           transform="translate(416.45508,0.015625)" />
        <use
           height="100%"
           width="100%"
           y="0"
           x="0"
           id="use3347"
           xlink:href="#DejaVuSans-100"
           transform="translate(479.83398,0.015625)" />
        <use
           height="100%"
           width="100%"
           y="0"
           x="0"
           id="use3349"
           xlink:href="#DejaVuSans-32"
           transform="translate(543.31055,0.015625)" />
        <use
           height="100%"
           width="100%"
           y="0"
           x="0"
           id="use3351"
           xlink:href="#DejaVuSans-75"
           transform="translate(575.09766,0.015625)" />
        <use
           height="100%"
           width="100%"
           y="0"
           x="0"
           id="use3353"
           xlink:href="#DejaVuSans-68"
           transform="matrix(0.7,0,0,0.7,641.63086,-16.390625)" />
        <use
           height="100%"
           width="100%"
           y="0"
           x="0"
           id="use3355"
           xlink:href="#DejaVuSans-32"
           transform="translate(698.2666,0.015625)" />
        <use
           height="100%"
           width="100%"
           y="0"
           x="0"
           id="use3357"
           xlink:href="#DejaVuSans-40"
           transform="translate(730.05371,0.015625)" />
        <use
           height="100%"
           width="100%"
           y="0"
           x="0"
           id="use3359"
           xlink:href="#DejaVuSans-181"
           transform="translate(769.06738,0.015625)" />
        <use
           height="100%"
           width="100%"
           y="0"
           x="0"
           id="use3361"
           xlink:href="#DejaVuSans-77"
           transform="translate(832.69043,0.015625)" />
        <use
           height="100%"
           width="100%"
           y="0"
           x="0"
           id="use3363"
           xlink:href="#DejaVuSans-41"
           transform="translate(918.96973,0.015625)" />
      </g>
    </g>
  </g>
  <g
     id="ytick_1">
    <g
       id="line2d_13">
      <path
         clip-path="url(#p2bddff9c0e)"
         d="M 47.868593,320.2386 H 496.13961"
         style="fill:none;stroke:#b0b0b0;stroke-width:0.8;stroke-linecap:square"
         id="path3369" />
    </g>
    <g
       id="line2d_14">
      <defs
         id="defs3373">
        <path
           d="M 0,0 H -3.5"
           id="m5260e74162"
           style="stroke:#000000;stroke-width:0.8" />
      </defs>
      <g
         id="g3377">
        <use
           style="stroke:#000000;stroke-width:0.8"
           x="47.868591"
           xlink:href="#m5260e74162"
           y="320.23862"
           id="use3375"
           width="100%"
           height="100%" />
      </g>
    </g>
    <g
       id="text_8">
      <!-- 25 -->
      <g
         transform="matrix(0.12,0,0,-0.12,25.598593,324.79767)"
         id="g3384">
        <use
           xlink:href="#DejaVuSans-50"
           id="use3380"
           x="0"
           y="0"
           width="100%"
           height="100%" />
        <use
           x="63.623047"
           xlink:href="#DejaVuSans-53"
           id="use3382"
           y="0"
           width="100%"
           height="100%" />
      </g>
    </g>
  </g>
  <g
     id="ytick_2">
    <g
       id="line2d_15">
      <path
         clip-path="url(#p2bddff9c0e)"
         d="M 47.868593,260.72945 H 496.13961"
         style="fill:none;stroke:#b0b0b0;stroke-width:0.8;stroke-linecap:square"
         id="path3388" />
    </g>
    <g
       id="line2d_16">
      <g
         id="g3393">
        <use
           style="stroke:#000000;stroke-width:0.8"
           x="47.868591"
           xlink:href="#m5260e74162"
           y="260.72946"
           id="use3391"
           width="100%"
           height="100%" />
      </g>
    </g>
    <g
       id="text_9">
      <!-- 30 -->
      <g
         transform="matrix(0.12,0,0,-0.12,25.598593,265.28851)"
         id="g3400">
        <use
           xlink:href="#DejaVuSans-51"
           id="use3396"
           x="0"
           y="0"
           width="100%"
           height="100%" />
        <use
           x="63.623047"
           xlink:href="#DejaVuSans-48"
           id="use3398"
           y="0"
           width="100%"
           height="100%" />
      </g>
    </g>
  </g>
  <g
     id="ytick_3">
    <g
       id="line2d_17">
      <path
         clip-path="url(#p2bddff9c0e)"
         d="M 47.868593,201.22029 H 496.13961"
         style="fill:none;stroke:#b0b0b0;stroke-width:0.8;stroke-linecap:square"
         id="path3404" />
    </g>
    <g
       id="line2d_18">
      <g
         id="g3409">
        <use
           style="stroke:#000000;stroke-width:0.8"
           x="47.868591"
           xlink:href="#m5260e74162"
           y="201.22029"
           id="use3407"
           width="100%"
           height="100%" />
      </g>
    </g>
    <g
       id="text_10">
      <!-- 35 -->
      <g
         transform="matrix(0.12,0,0,-0.12,25.598593,205.77935)"
         id="g3416">
        <use
           xlink:href="#DejaVuSans-51"
           id="use3412"
           x="0"
           y="0"
           width="100%"
           height="100%" />
        <use
           x="63.623047"
           xlink:href="#DejaVuSans-53"
           id="use3414"
           y="0"
           width="100%"
           height="100%" />
      </g>
    </g>
  </g>
  <g
     id="ytick_4">
    <g
       id="line2d_19">
      <path
         clip-path="url(#p2bddff9c0e)"
         d="M 47.868593,141.71114 H 496.13961"
         style="fill:none;stroke:#b0b0b0;stroke-width:0.8;stroke-linecap:square"
         id="path3420" />
    </g>
    <g
       id="line2d_20">
      <g
         id="g3425">
        <use
           style="stroke:#000000;stroke-width:0.8"
           x="47.868591"
           xlink:href="#m5260e74162"
           y="141.71114"
           id="use3423"
           width="100%"
           height="100%" />
      </g>
    </g>
    <g
       id="text_11">
      <!-- 40 -->
      <g
         transform="matrix(0.12,0,0,-0.12,25.598593,146.2702)"
         id="g3432">
        <use
           xlink:href="#DejaVuSans-52"
           id="use3428"
           x="0"
           y="0"
           width="100%"
           height="100%" />
        <use
           x="63.623047"
           xlink:href="#DejaVuSans-48"
           id="use3430"
           y="0"
           width="100%"
           height="100%" />
      </g>
    </g>
  </g>
  <g
     id="ytick_5">
    <g
       id="line2d_21">
      <path
         clip-path="url(#p2bddff9c0e)"
         d="M 47.868593,82.201979 H 496.13961"
         style="fill:none;stroke:#b0b0b0;stroke-width:0.8;stroke-linecap:square"
         id="path3436" />
    </g>
    <g
       id="line2d_22">
      <g
         id="g3441">
        <use
           style="stroke:#000000;stroke-width:0.8"
           x="47.868591"
           xlink:href="#m5260e74162"
           y="82.201981"
           id="use3439"
           width="100%"
           height="100%" />
      </g>
    </g>
    <g
       id="text_12">
      <!-- 45 -->
      <g
         transform="matrix(0.12,0,0,-0.12,25.598593,86.761041)"
         id="g3448">
        <use
           xlink:href="#DejaVuSans-52"
           id="use3444"
           x="0"
           y="0"
           width="100%"
           height="100%" />
        <use
           x="63.623047"
           xlink:href="#DejaVuSans-53"
           id="use3446"
           y="0"
           width="100%"
           height="100%" />
      </g>
    </g>
  </g>
  <g
     id="ytick_6">
    <g
       id="line2d_23">
      <path
         clip-path="url(#p2bddff9c0e)"
         d="M 47.868593,22.692823 H 496.13961"
         style="fill:none;stroke:#b0b0b0;stroke-width:0.8;stroke-linecap:square"
         id="path3452" />
    </g>
    <g
       id="line2d_24">
      <g
         id="g3457">
        <use
           style="stroke:#000000;stroke-width:0.8"
           x="47.868591"
           xlink:href="#m5260e74162"
           y="22.692823"
           id="use3455"
           width="100%"
           height="100%" />
      </g>
    </g>
    <g
       id="text_13">
      <!-- 50 -->
      <g
         transform="matrix(0.12,0,0,-0.12,25.598593,27.251885)"
         id="g3464">
        <use
           xlink:href="#DejaVuSans-53"
           id="use3460"
           x="0"
           y="0"
           width="100%"
           height="100%" />
        <use
           x="63.623047"
           xlink:href="#DejaVuSans-48"
           id="use3462"
           y="0"
           width="100%"
           height="100%" />
      </g>
    </g>
  </g>
  <g
     id="line2d_25">
    <path
       id="path3506"
       style="fill:none;stroke:#000000;stroke-width:1.5;stroke-linecap:square"
       d="m 47.868593,260.72945 1.346159,-11.02187 1.794879,-12.48426 1.794879,-10.64417 1.794879,-9.27153 1.794879,-8.2033 2.243598,-9.06714 2.243599,-8.01286 2.243599,-7.16232 2.243598,-6.46109 2.243599,-5.87279 2.692318,-6.3929 2.692319,-5.78897 2.692318,-5.27646 2.692319,-4.83638 3.141038,-5.16342 3.141038,-4.71811 3.141038,-4.3329 3.589758,-4.54272 3.589758,-4.16326 3.589758,-3.83264 4.038477,-3.9665 4.03848,-3.64652 4.03848,-3.36584 4.48719,-3.45038 4.4872,-3.18196 4.93592,-3.22757 5.38463,-3.235045 5.38464,-2.973373 5.83336,-2.962382 6.28207,-2.926542 6.28208,-2.686956 6.7308,-2.645912 7.17951,-2.589401 7.62824,-2.52076 8.07695,-2.442937 8.9744,-2.476918 9.42311,-2.36722 10.32056,-2.355386 10.76927,-2.229462 11.66671,-2.188692 12.56415,-2.130621 13.4616,-2.059598 14.80775,-2.037992 16.15391,-1.992309 17.50007,-1.928467 18.84623,-1.851665 20.6411,-1.803276 22.88471,-1.770053 25.1283,-1.713256 27.37191,-1.639898 30.51294,-1.59992 33.65398,-1.537155 8.07696,-0.3385 v 0"
       clip-path="url(#p2bddff9c0e)" />
  </g>
  <g
     transform="matrix(0.0177841,0,0,1,47.017292,0)"
     id="line2d_26">
    <path
       id="path3509"
       style="fill:none;stroke:#1f77b4;stroke-width:1.5;stroke-linecap:square"
       d="M 47.868593,211.63439 H 496.13961"
       clip-path="url(#p2bddff9c0e)" />
  </g>
  <g
     transform="matrix(0.03006814,0,0,1,46.429274,0)"
     id="line2d_27">
    <path
       id="path3512"
       style="fill:none;stroke:#1f77b4;stroke-width:1.5;stroke-linecap:square"
       d="M 47.868593,190.80619 H 496.13961"
       clip-path="url(#p2bddff9c0e)" />
  </g>
  <g
     transform="matrix(1,0,0,0.35082778,0,207.89)"
     id="line2d_28">
    <path
       id="path3515"
       style="fill:none;stroke:#1f77b4;stroke-width:1.5;stroke-linecap:square"
       d="M 55.818344,320.2386 V 10.790991"
       clip-path="url(#p2bddff9c0e)" />
  </g>
  <g
     transform="matrix(1,0,0,0.41809657,0,186.34794)"
     id="line2d_29">
    <path
       id="path3518"
       style="fill:none;stroke:#1f77b4;stroke-width:1.5;stroke-linecap:square"
       d="M 61.246309,320.2386 V 10.790991"
       clip-path="url(#p2bddff9c0e)" />
  </g>
  <g
     transform="matrix(0.0638712,0,0,1,44.811169,0)"
     id="line2d_30">
    <path
       id="path3521"
       style="fill:none;stroke:#1f77b4;stroke-width:1.5;stroke-linecap:square"
       d="M 47.868593,153.61297 H 496.13961"
       clip-path="url(#p2bddff9c0e)" />
  </g>
  <g
     transform="matrix(0.0993903,0,0,1,43.110919,0)"
     id="line2d_31">
    <path
       id="path3524"
       style="fill:none;stroke:#1f77b4;stroke-width:1.5;stroke-linecap:square"
       d="M 47.868593,129.8093 H 496.13961"
       clip-path="url(#p2bddff9c0e)" />
  </g>
  <g
     transform="matrix(1,0,0,0.53832356,0,147.84662)"
     id="line2d_32">
    <path
       id="path3527"
       style="fill:none;stroke:#1f77b4;stroke-width:1.5;stroke-linecap:square"
       d="M 76.476434,320.2386 V 10.790991"
       clip-path="url(#p2bddff9c0e)" />
  </g>
  <g
     transform="matrix(1,0,0,0.61538462,0,123.16869)"
     id="line2d_33">
    <path
       id="path3530"
       style="fill:none;stroke:#1f77b4;stroke-width:1.5;stroke-linecap:square"
       d="M 92.79531,320.2386 V 10.790991"
       clip-path="url(#p2bddff9c0e)" />
  </g>
  <g
     transform="matrix(0.19878061,0,0,1,38.353245,0)"
     id="line2d_34">
    <path
       id="path3533"
       style="fill:none;stroke:#1f77b4;stroke-width:1.5;stroke-linecap:square"
       d="M 47.868593,95.591539 H 496.13961"
       clip-path="url(#p2bddff9c0e)" />
  </g>
  <g
     transform="matrix(0.38410683,0,0,1,29.481939,0)"
     id="line2d_35">
    <path
       id="path3536"
       style="fill:none;stroke:#1f77b4;stroke-width:1.5;stroke-linecap:square"
       d="M 47.868593,68.812419 H 496.13961"
       clip-path="url(#p2bddff9c0e)" />
  </g>
  <g
     transform="matrix(1,0,0,0.72587938,0,87.784002)"
     id="line2d_36">
    <path
       id="path3539"
       style="fill:none;stroke:#1f77b4;stroke-width:1.5;stroke-linecap:square"
       d="M 136.97618,320.2386 V 10.790991"
       clip-path="url(#p2bddff9c0e)" />
  </g>
  <g
     transform="matrix(1,0,0,0.8125,0,60.044739)"
     id="line2d_37">
    <path
       id="path3542"
       style="fill:none;stroke:#1f77b4;stroke-width:1.5;stroke-linecap:square"
       d="M 219.95043,320.2386 V 10.790991"
       clip-path="url(#p2bddff9c0e)" />
  </g>
  <g
     id="patch_3">
    <path
       id="path3545"
       style="fill:none;stroke:#000000;stroke-width:0.8;stroke-linecap:square;stroke-linejoin:miter"
       d="M 47.868593,320.2386 V 10.790991" />
  </g>
  <g
     id="patch_4">
    <path
       id="path3548"
       style="fill:none;stroke:#000000;stroke-width:0.8;stroke-linecap:square;stroke-linejoin:miter"
       d="M 496.13961,320.2386 V 10.790991" />
  </g>
  <g
     id="patch_5">
    <path
       id="path3551"
       style="fill:none;stroke:#000000;stroke-width:0.8;stroke-linecap:square;stroke-linejoin:miter"
       d="M 47.868593,320.2386 H 496.13961" />
  </g>
  <g
     id="patch_6">
    <path
       id="path3554"
       style="fill:none;stroke:#000000;stroke-width:0.8;stroke-linecap:square;stroke-linejoin:miter"
       d="M 47.868593,10.790991 H 496.13961" />
  </g>
  <defs
     id="defs3634">
    <clipPath
       id="p2bddff9c0e">
      <rect
         id="rect3631"
         y="10.790991"
         x="47.868593"
         width="448.271012"
         height="309.447612" />
    </clipPath>
  </defs>
  <path
     transform="scale(0.74999998)"
     id="path4149"
     d="m 64.52516,100.84901 0.007,-7.981655 59.11838,0.0522 59.11838,0.0522 -0.007,7.981665 -0.007,7.98165 -59.11838,-0.0522 -59.118385,-0.0522 z"
     style="fill:#00aeff;fill-rule:evenodd;stroke:none;stroke-width:0.243508;stroke-linejoin:round;stroke-miterlimit:4;stroke-dasharray:none;stroke-dashoffset:3.451;opacity:1;fill-opacity:0.45857987" />
  <path
     transform="scale(0.74999998)"
     id="path4151"
     d="m 184.11472,100.98789 0.007,-7.948365 43.08759,-0.149963 c 23.69818,-0.08248 45.76615,-0.108415 49.03994,-0.05763 l 5.95235,0.09233 -5.27706,1.182145 c -16.74168,3.7504 -36.40616,9.137713 -49.78472,13.639093 l -3.64244,1.22555 -19.69485,-0.0174 -19.69485,-0.0174 z"
     style="fill:#00aeff;fill-rule:evenodd;stroke:none;stroke-width:0.243508;stroke-linejoin:round;stroke-miterlimit:4;stroke-dasharray:none;stroke-dashoffset:3.451;fill-opacity:0.45857987;opacity:1" />
  <path
     transform="scale(0.74999998)"
     id="path4153"
     d="m 232.57353,108.46693 c 2.36148,-0.94094 18.82194,-5.61145 28.15452,-7.98859 10.64356,-2.711065 17.27908,-4.268528 25.25925,-5.928748 2.52587,-0.525489 4.89389,-1.043929 5.26227,-1.152089 0.62258,-0.182794 0.6693,0.358048 0.66284,7.673177 l -0.007,7.86982 -30.13258,-0.0508 c -19.95925,-0.0337 -29.81751,-0.17641 -29.19935,-0.42272 z"
     style="fill:#00aeff;fill-opacity:0.45857987;fill-rule:evenodd;stroke:none;stroke-width:0.344373;stroke-linejoin:round;stroke-miterlimit:4;stroke-dasharray:none;stroke-dashoffset:3.451;opacity:1" />
  <path
     transform="scale(0.74999998)"
     id="path4155"
     d="m 183.95858,158.07236 0.0265,-29.97857 6.22047,-2.97309 c 10.25294,-4.90043 17.53187,-7.91407 30.06971,-12.44954 l 6.24158,-2.25784 32.63162,0.0288 32.63161,0.0288 0.24114,13.8377 c 0.13263,7.61074 0.23121,25.08775 0.21907,38.8378 l -0.0221,25.00011 -54.14303,-0.0478 -54.14303,-0.0478 z"
     style="fill:#00aeff;fill-opacity:0.45857987;fill-rule:evenodd;stroke:none;stroke-width:0.344373;stroke-linejoin:round;stroke-miterlimit:4;stroke-dasharray:none;stroke-dashoffset:3.451;opacity:1" />
  <path
     transform="scale(0.74999998)"
     id="path4157"
     d="m 184.13674,244.0443 c -0.12828,-12.97749 -0.2271,-30.54059 -0.21961,-39.02912 l 0.0136,-15.4337 54.14303,0.0478 54.14303,0.0478 -0.0345,39.0289 -0.0345,39.0289 -53.88897,-0.0476 -53.88896,-0.0476 z"
     style="fill:#00aeff;fill-opacity:0.45857987;fill-rule:evenodd;stroke:none;stroke-width:0.344373;stroke-linejoin:round;stroke-miterlimit:4;stroke-dasharray:none;stroke-dashoffset:3.451;opacity:1" />
  <path
     transform="scale(0.74999998)"
     id="path4159"
     d="m 184.20878,308.07047 0.0342,-38.77484 23.24538,-0.23318 c 12.78496,-0.12826 37.06333,-0.22114 53.95193,-0.20642 l 30.70656,0.0268 -0.0345,39.0289 -0.0345,39.0289 -53.95171,-0.0476 -53.95171,-0.0476 z"
     style="fill:#00aeff;fill-opacity:0.45857987;fill-rule:evenodd;stroke:none;stroke-width:0.344373;stroke-linejoin:round;stroke-miterlimit:4;stroke-dasharray:none;stroke-dashoffset:3.451;opacity:1" />
  <path
     transform="scale(0.74999998)"
     id="path4161"
     d="m 184.13868,387.4676 0.0345,-39.09174 53.95171,0.0476 53.95171,0.0476 -0.0343,38.83758 -0.0343,38.83758 -28.06062,-0.0248 c -15.43335,-0.0136 -39.71172,0.0793 -53.95194,0.20652 l -25.89131,0.2313 z"
     style="fill:#00aeff;fill-opacity:0.45857987;fill-rule:evenodd;stroke:none;stroke-width:0.344373;stroke-linejoin:round;stroke-miterlimit:4;stroke-dasharray:none;stroke-dashoffset:3.451;opacity:1" />
  <path
     transform="scale(0.74999998)"
     id="path4163"
     d="m 183.9941,117.83719 0.007,-7.46141 17.50559,0.0354 17.50559,0.0354 -2.10519,0.78445 c -10.80383,4.02582 -21.19406,8.41457 -28.44259,12.01391 -2.275,1.12968 -4.21291,2.0539 -4.30647,2.05381 -0.0936,-8e-5 -0.16714,-3.35778 -0.16352,-7.46155 z"
     style="fill:#00aeff;fill-opacity:0.45857987;fill-rule:evenodd;stroke:none;stroke-width:0.344373;stroke-linejoin:round;stroke-miterlimit:4;stroke-dasharray:none;stroke-dashoffset:3.451;opacity:1" />
  <path
     transform="scale(0.74999998)"
     id="path4169"
     d="m 64.611084,118.30574 0.0071,-8.03537 58.925976,0.052 58.92598,0.052 -0.007,8.03536 -0.007,8.03536 -58.92598,-0.052 -58.925976,-0.052 z"
     style="fill:#00aeff;fill-opacity:0.45857987;fill-rule:evenodd;stroke:none;stroke-width:0.344373;stroke-linejoin:round;stroke-miterlimit:4;stroke-dasharray:none;stroke-dashoffset:3.451;opacity:1" />
  <path
     transform="scale(0.74999998)"
     id="path4171"
     d="m 64.55551,181.2494 0.0063,-7.07877 28.123764,0.0248 c 15.468066,0.0137 28.123686,0.11907 28.123576,0.23425 -1e-4,0.11519 -1.50852,2.13981 -3.35204,4.49917 -1.84352,2.35935 -4.12771,5.44309 -5.07598,6.85275 l -1.72413,2.56301 -23.053845,-0.008 -23.053845,-0.008 z"
     style="fill:#00ff00;fill-opacity:0.30177516;fill-rule:evenodd;stroke:none;stroke-width:0.344373;stroke-linejoin:round;stroke-miterlimit:4;stroke-dasharray:none;stroke-dashoffset:3.451" />
  <path
     transform="scale(0.74999998)"
     id="path4173"
     d="m 115.54245,185.58797 c 2.51947,-3.49444 6.84397,-9.07047 7.03448,-9.0703 0.0789,7e-5 0.14116,2.66901 0.13828,5.93099 l -0.005,5.93086 -4.58719,-0.004 -4.58718,-0.004 z"
     style="fill:#00ff00;fill-opacity:0.30177516;fill-rule:evenodd;stroke:none;stroke-width:0.344373;stroke-linejoin:round;stroke-miterlimit:4;stroke-dasharray:none;stroke-dashoffset:3.451" />
  <path
     transform="scale(0.74999998)"
     id="path4175"
     d="m 103.15315,236.35562 0.0276,-31.21238 1.02607,-1.78909 c 1.82381,-3.18004 6.32941,-10.53926 7.4756,-12.21025 l 1.1148,-1.62522 4.95589,0.004 4.95589,0.004 -0.0345,39.0289 -0.0345,39.02889 -9.75723,-0.009 -9.75722,-0.009 z"
     style="fill:#00ff00;fill-opacity:0.30177516;fill-rule:evenodd;stroke:none;stroke-width:0.344373;stroke-linejoin:round;stroke-miterlimit:4;stroke-dasharray:none;stroke-dashoffset:3.451" />
  <path
     transform="scale(0.74999998)"
     id="path4177"
     d="m 64.541997,196.55485 0.0063,-7.07877 22.613114,0.02 22.613109,0.02 -0.8222,1.24284 c -0.45222,0.68357 -2.3905,3.8673 -4.30728,7.07498 l -3.48507,5.83213 -18.312085,-0.0162 -18.312088,-0.0162 z"
     style="fill:#00ff00;fill-opacity:0.30177516;fill-rule:evenodd;stroke:none;stroke-width:0.344373;stroke-linejoin:round;stroke-miterlimit:4;stroke-dasharray:none;stroke-dashoffset:3.451" />
  <path
     transform="scale(0.74999998)"
     id="path4179"
     d="m 103.08995,307.93612 0.0343,-38.83758 9.75722,0.009 9.75723,0.009 -0.0343,38.83758 -0.0343,38.83758 -9.75723,-0.009 -9.75722,-0.009 z"
     style="fill:#00ff00;fill-opacity:0.30177516;fill-rule:evenodd;stroke:none;stroke-width:0.344373;stroke-linejoin:round;stroke-miterlimit:4;stroke-dasharray:none;stroke-dashoffset:3.451" />
  <path
     transform="scale(0.74999998)"
     id="path4181"
     d="m 103.01985,387.33314 0.0345,-39.0289 9.75722,0.009 9.75722,0.009 -0.0344,39.0289 -0.0345,39.0289 -9.75723,-0.009 -9.75722,-0.009 z"
     style="fill:#00ff00;fill-opacity:0.30177516;fill-rule:evenodd;stroke:none;stroke-width:0.344373;stroke-linejoin:round;stroke-miterlimit:4;stroke-dasharray:none;stroke-dashoffset:3.451" />
  <path
     transform="scale(0.74999998)"
     id="path4183"
     d="m 75.470037,387.30882 0.03446,-39.0289 2.487136,0.002 2.487135,0.002 -0.03446,39.0289 -0.03446,39.0289 -2.487136,-0.002 -2.487135,-0.002 z"
     style="fill:#ff0000;fill-opacity:0.42011833;fill-rule:evenodd;stroke:none;stroke-width:0.344373;stroke-linejoin:round;stroke-miterlimit:4;stroke-dasharray:none;stroke-dashoffset:3.451" />
  <path
     transform="scale(0.74999998)"
     id="path4185"
     d="m 75.534102,314.74819 0.02825,-32.00119 1.600927,-6.83498 c 1.510352,-6.44829 1.651406,-6.83494 2.493171,-6.8342 l 0.892245,7.9e-4 -0.03429,38.83758 -0.03429,38.83758 -2.487136,-0.002 -2.487136,-0.002 z"
     style="fill:#ff0000;fill-opacity:0.42011833;fill-rule:evenodd;stroke:none;stroke-width:0.344373;stroke-linejoin:round;stroke-miterlimit:4;stroke-dasharray:none;stroke-dashoffset:3.451" />
  <path
     transform="scale(0.74999998)"
     id="path4187"
     d="m 64.484565,261.60301 0.0052,-5.93086 7.652725,0.007 c 5.197392,0.005 7.652609,0.13858 7.652362,0.41763 -2.9e-4,0.32898 -2.031156,7.82244 -2.921216,10.77866 -0.180991,0.60114 -0.823506,0.66889 -6.297949,0.66406 l -6.096395,-0.005 z"
     style="fill:#ff0000;fill-opacity:0.42011833;fill-rule:evenodd;stroke:none;stroke-width:0.344;stroke-linejoin:miter;stroke-miterlimit:4;stroke-dasharray:none;stroke-dashoffset:3.451;stroke-linecap:square" />
  <path
     transform="scale(0.74999998)"
     id="path4189"
     d="m 64.47274,274.99528 0.0052,-5.93086 5.9718,0.005 c 4.656947,0.004 5.930823,0.11177 5.785692,0.48898 -0.102358,0.26604 -0.767579,2.93434 -1.478268,5.92956 l -1.292163,5.44586 -4.498767,-0.004 -4.498767,-0.004 z"
     style="fill:#ff0000;fill-opacity:0.42011833;fill-rule:evenodd;stroke:none;stroke-width:0.344373;stroke-linejoin:round;stroke-miterlimit:4;stroke-dasharray:none;stroke-dashoffset:3.451" />
  <path
     transform="scale(0.74999998)"
     id="path4191"
     d="m 79.038014,267.57656 c 0.09182,-0.39207 1.547672,-5.59738 1.572986,-5.62411 0.01467,-0.0155 0.02551,1.28577 0.02409,2.89168 l -0.0026,2.91985 -0.819027,-7.3e-4 -0.819027,-7.2e-4 z"
     style="fill:#ff0000;fill-opacity:0.42011833;fill-rule:evenodd;stroke:none;stroke-width:0.0608771;stroke-linejoin:round;stroke-miterlimit:4;stroke-dasharray:none;stroke-dashoffset:3.451" />
  <rect
     y="13.052273"
     x="163.51006"
     height="22.724226"
     width="221.91383"
     id="rect1681"
     style="fill:#ffffff;fill-opacity:1;fill-rule:evenodd;stroke:#d6d6d6;stroke-width:0.98497;stroke-linecap:butt;stroke-linejoin:round;stroke-miterlimit:4;stroke-dasharray:none;stroke-dashoffset:3.451;stroke-opacity:1;paint-order:normal" />
  <g
     transform="translate(15)"
     id="text_15">
    <!-- qµD simulation with 5% error -->
    <defs
       id="defs3569">
      <path
         d="m 14.796875,27.296875 q 0,-9.90625 4.078125,-15.546875 4.078125,-5.640625 11.203125,-5.640625 7.125,0 11.21875,5.640625 4.109375,5.640625 4.109375,15.546875 0,9.90625 -4.109375,15.546875 -4.09375,5.640625 -11.21875,5.640625 -7.125,0 -11.203125,-5.640625 -4.078125,-5.640625 -4.078125,-15.546875 z M 45.40625,8.203125 q -2.828125,-4.875 -7.15625,-7.25 -4.3125,-2.375 -10.375,-2.375 -9.90625,0 -16.140625,7.90625 -6.21875,7.921875 -6.21875,20.8125 0,12.890625 6.21875,20.796875 Q 17.96875,56 27.875,56 q 6.0625,0 10.375,-2.375 4.328125,-2.359375 7.15625,-7.234375 V 54.6875 h 8.984375 V -20.796875 H 45.40625 Z"
         id="DejaVuSans-113" />
      <path
         d="m 44.28125,53.078125 v -8.5 Q 40.484375,46.53125 36.375,47.5 q -4.09375,0.984375 -8.5,0.984375 -6.6875,0 -10.03125,-2.046875 Q 14.5,44.390625 14.5,40.28125 q 0,-3.125 2.390625,-4.90625 2.390625,-1.78125 9.625,-3.390625 l 3.078125,-0.6875 Q 39.15625,29.25 43.1875,25.515625 47.21875,21.78125 47.21875,15.09375 q 0,-7.625 -6.03125,-12.078125 -6.03125,-4.4375 -16.578125,-4.4375 -4.390625,0 -9.15625,0.859375 Q 10.6875,0.296875 5.421875,2 v 9.28125 q 4.984375,-2.59375 9.8125,-3.890625 4.828125,-1.28125 9.578125,-1.28125 6.34375,0 9.75,2.171875 3.421875,2.171875 3.421875,6.125 0,3.65625 -2.46875,5.609375 -2.453125,1.953125 -10.8125,3.765625 l -3.125,0.734375 q -8.34375,1.75 -12.0625,5.390625 -3.703125,3.640625 -3.703125,9.984375 0,7.71875 5.46875,11.90625 Q 16.75,56 26.8125,56 q 4.96875,0 9.359375,-0.734375 4.40625,-0.71875 8.109375,-2.1875 z"
         id="DejaVuSans-115" />
      <path
         d="M 9.421875,54.6875 H 18.40625 V 0 H 9.421875 Z m 0,21.296875 H 18.40625 V 64.59375 H 9.421875 Z"
         id="DejaVuSans-105" />
      <path
         d="M 9.421875,75.984375 H 18.40625 V 0 H 9.421875 Z"
         id="DejaVuSans-108" />
      <path
         d="m 34.28125,27.484375 q -10.890625,0 -15.09375,-2.484375 -4.203125,-2.484375 -4.203125,-8.5 0,-4.78125 3.15625,-7.59375 3.15625,-2.796875 8.5625,-2.796875 7.484375,0 12,5.296875 4.515625,5.296875 4.515625,14.078125 v 2 z m 17.921875,3.71875 V 0 H 43.21875 v 8.296875 q -3.078125,-4.96875 -7.671875,-7.34375 -4.59375,-2.375 -11.234375,-2.375 -8.390625,0 -13.359375,4.71875 Q 6,8.015625 6,15.921875 q 0,9.21875 6.171875,13.90625 6.1875,4.6875 18.4375,4.6875 H 43.21875 v 0.890625 q 0,6.203125 -4.078125,9.59375 -4.078125,3.390625 -11.453125,3.390625 -4.6875,0 -9.140625,-1.125 -4.4375,-1.125 -8.53125,-3.375 v 8.3125 q 4.921875,1.90625 9.5625,2.84375 Q 24.21875,56 28.609375,56 q 11.875,0 17.734375,-6.15625 5.859375,-6.140625 5.859375,-18.640625 z"
         id="DejaVuSans-97" />
      <path
         d="M 18.3125,70.21875 V 54.6875 h 18.5 v -6.984375 h -18.5 v -29.6875 q 0,-6.6875 1.828125,-8.59375 1.828125,-1.90625 7.453125,-1.90625 H 36.8125 V 0 H 27.59375 Q 17.1875,0 13.234375,3.875 9.28125,7.765625 9.28125,18.015625 v 29.6875 H 2.6875 V 54.6875 h 6.59375 v 15.53125 z"
         id="DejaVuSans-116" />
      <path
         d="M 4.203125,54.6875 H 13.1875 L 24.421875,12.015625 35.59375,54.6875 H 46.1875 L 57.421875,12.015625 68.609375,54.6875 H 77.59375 L 63.28125,0 H 52.6875 L 40.921875,44.828125 29.109375,0 H 18.5 Z"
         id="DejaVuSans-119" />
      <path
         d="M 54.890625,33.015625 V 0 H 45.90625 v 32.71875 q 0,7.765625 -3.03125,11.609375 -3.03125,3.859375 -9.078125,3.859375 -7.28125,0 -11.484375,-4.640625 -4.203125,-4.625 -4.203125,-12.640625 V 0 h -9.03125 v 75.984375 h 9.03125 V 46.1875 q 3.234375,4.9375 7.59375,7.375 4.375,2.4375 10.09375,2.4375 9.421875,0 14.25,-5.828125 4.84375,-5.828125 4.84375,-17.15625 z"
         id="DejaVuSans-104" />
      <path
         d="m 72.703125,32.078125 q -4.25,0 -6.671875,-3.609375 -2.40625,-3.609375 -2.40625,-10.0625 0,-6.34375 2.40625,-9.984375 2.421875,-3.640625 6.671875,-3.640625 4.15625,0 6.5625,3.640625 2.421875,3.640625 2.421875,9.984375 0,6.40625 -2.421875,10.03125 -2.40625,3.640625 -6.5625,3.640625 z m 0,6.203125 q 7.71875,0 12.25,-5.375 Q 89.5,27.546875 89.5,18.40625 q 0,-9.125 -4.5625,-14.484375 -4.5625,-5.34375 -12.234375,-5.34375 -7.8125,0 -12.359375,5.34375 -4.53125,5.359375 -4.53125,14.484375 0,9.1875 4.5625,14.53125 4.5625,5.34375 12.328125,5.34375 z M 22.3125,68.015625 q -4.203125,0 -6.625,-3.640625 -2.40625,-3.625 -2.40625,-9.984375 0,-6.4375 2.390625,-10.0625 2.390625,-3.609375 6.640625,-3.609375 4.25,0 6.65625,3.609375 2.421875,3.625 2.421875,10.0625 0,6.296875 -2.4375,9.953125 -2.4375,3.671875 -6.640625,3.671875 z m 44.09375,6.203125 h 7.8125 L 28.609375,-1.421875 h -7.8125 z m -44.09375,0 q 7.71875,0 12.296875,-5.34375 4.59375,-5.34375 4.59375,-14.484375 0,-9.21875 -4.5625,-14.546875 -4.5625,-5.328125 -12.328125,-5.328125 -7.765625,0 -12.28125,5.34375 -4.515625,5.359375 -4.515625,14.53125 0,9.09375 4.53125,14.453125 4.546875,5.375 12.265625,5.375 z"
         id="DejaVuSans-37" />
      <path
         d="m 56.203125,29.59375 v -4.390625 h -41.3125 q 0.59375,-9.28125 5.59375,-14.140625 5,-4.859375 13.9375,-4.859375 5.171875,0 10.03125,1.265625 4.859375,1.265625 9.65625,3.8125 v -8.5 q -4.84375,-2.046875 -9.921875,-3.125 -5.078125,-1.078125 -10.296875,-1.078125 -13.09375,0 -20.734375,7.609375 -7.640625,7.625 -7.640625,20.625 0,13.421875 7.25,21.296875 Q 20.015625,56 32.328125,56 q 11.03125,0 17.453125,-7.109375 6.421875,-7.09375 6.421875,-19.296875 z m -8.984375,2.640625 q -0.09375,7.359375 -4.125,11.75 -4.03125,4.40625 -10.671875,4.40625 -7.515625,0 -12.03125,-4.25 -4.515625,-4.25 -5.203125,-11.96875 z"
         id="DejaVuSans-101" />
      <path
         d="m 41.109375,46.296875 q -1.515625,0.875 -3.296875,1.28125 Q 36.03125,48 33.890625,48 26.265625,48 22.1875,43.046875 18.109375,38.09375 18.109375,28.8125 V 0 h -9.03125 v 54.6875 h 9.03125 v -8.5 q 2.84375,4.984375 7.375,7.390625 Q 30.03125,56 36.53125,56 q 0.921875,0 2.046875,-0.125 1.125,-0.109375 2.484375,-0.359375 z"
         id="DejaVuSans-114" />
    </defs>
    <g
       transform="matrix(0.14,0,0,-0.14,156.62703,28.961813)"
       id="g3627">
      <use
         xlink:href="#DejaVuSans-113"
         id="use3571"
         x="0"
         y="0"
         width="100%"
         height="100%" />
      <use
         x="63.476562"
         xlink:href="#DejaVuSans-181"
         id="use3573"
         y="0"
         width="100%"
         height="100%" />
      <use
         x="127.09961"
         xlink:href="#DejaVuSans-68"
         id="use3575"
         y="0"
         width="100%"
         height="100%" />
      <use
         x="204.10156"
         xlink:href="#DejaVuSans-32"
         id="use3577"
         y="0"
         width="100%"
         height="100%" />
      <use
         x="235.88867"
         xlink:href="#DejaVuSans-115"
         id="use3579"
         y="0"
         width="100%"
         height="100%" />
      <use
         x="287.98828"
         xlink:href="#DejaVuSans-105"
         id="use3581"
         y="0"
         width="100%"
         height="100%" />
      <use
         x="315.77148"
         xlink:href="#DejaVuSans-109"
         id="use3583"
         y="0"
         width="100%"
         height="100%" />
      <use
         x="413.18359"
         xlink:href="#DejaVuSans-117"
         id="use3585"
         y="0"
         width="100%"
         height="100%" />
      <use
         x="476.5625"
         xlink:href="#DejaVuSans-108"
         id="use3587"
         y="0"
         width="100%"
         height="100%" />
      <use
         x="504.3457"
         xlink:href="#DejaVuSans-97"
         id="use3589"
         y="0"
         width="100%"
         height="100%" />
      <use
         x="565.625"
         xlink:href="#DejaVuSans-116"
         id="use3591"
         y="0"
         width="100%"
         height="100%" />
      <use
         x="604.83398"
         xlink:href="#DejaVuSans-105"
         id="use3593"
         y="0"
         width="100%"
         height="100%" />
      <use
         x="632.61719"
         xlink:href="#DejaVuSans-111"
         id="use3595"
         y="0"
         width="100%"
         height="100%" />
      <use
         x="693.79883"
         xlink:href="#DejaVuSans-110"
         id="use3597"
         y="0"
         width="100%"
         height="100%" />
      <use
         x="757.17773"
         xlink:href="#DejaVuSans-32"
         id="use3599"
         y="0"
         width="100%"
         height="100%" />
      <use
         x="788.96484"
         xlink:href="#DejaVuSans-119"
         id="use3601"
         y="0"
         width="100%"
         height="100%" />
      <use
         x="870.75195"
         xlink:href="#DejaVuSans-105"
         id="use3603"
         y="0"
         width="100%"
         height="100%" />
      <use
         x="898.53516"
         xlink:href="#DejaVuSans-116"
         id="use3605"
         y="0"
         width="100%"
         height="100%" />
      <use
         x="937.74414"
         xlink:href="#DejaVuSans-104"
         id="use3607"
         y="0"
         width="100%"
         height="100%" />
      <use
         x="1001.123"
         xlink:href="#DejaVuSans-32"
         id="use3609"
         y="0"
         width="100%"
         height="100%" />
      <use
         x="1032.9102"
         xlink:href="#DejaVuSans-53"
         id="use3611"
         y="0"
         width="100%"
         height="100%" />
      <use
         x="1096.5332"
         xlink:href="#DejaVuSans-37"
         id="use3613"
         y="0"
         width="100%"
         height="100%" />
      <use
         x="1191.5527"
         xlink:href="#DejaVuSans-32"
         id="use3615"
         y="0"
         width="100%"
         height="100%" />
      <use
         x="1223.3398"
         xlink:href="#DejaVuSans-101"
         id="use3617"
         y="0"
         width="100%"
         height="100%" />
      <use
         x="1284.8633"
         xlink:href="#DejaVuSans-114"
         id="use3619"
         y="0"
         width="100%"
         height="100%" />
      <use
         x="1324.2266"
         xlink:href="#DejaVuSans-114"
         id="use3621"
         y="0"
         width="100%"
         height="100%" />
      <use
         x="1363.0898"
         xlink:href="#DejaVuSans-111"
         id="use3623"
         y="0"
         width="100%"
         height="100%" />
      <use
         x="1424.2715"
         xlink:href="#DejaVuSans-114"
         id="use3625"
         y="0"
         width="100%"
         height="100%" />
    </g>
  </g>
  <g
     id="text_14-7"
     style="stroke-linecap:butt;stroke-linejoin:round"
     transform="translate(-2.2858738,0.5977102)">
    <!-- [$lwhite$] (µM) -->
    <defs
       id="defs5969">
      <path
         d="M 8.59375,75.984375 H 29.296875 V 69 H 17.578125 V -6.203125 h 11.71875 V -13.1875 H 8.59375 Z"
         id="path7367" />
      <path
         d="m 18.3125,75.984375 h 8.984375 L 12.5,0 H 3.515625 Z"
         id="path7369" />
      <path
         d="m 8.5,54.6875 h 8.890625 l 2.28125,-44 20.421875,44 h 10.390625 l 3.03125,-44 19.390625,44 h 8.984375 L 56.890625,0 h -10.5 L 43.703125,45.3125 22.796875,0 h -10.59375 z"
         id="path7371" />
      <path
         d="M 55.71875,33.015625 49.3125,0 h -9.03125 l 6.40625,32.671875 q 0.4375,2.296875 0.671875,4.046875 0.25,1.765625 0.25,2.78125 0,4.109375 -2.59375,6.390625 -2.578125,2.296875 -7.21875,2.296875 -7.234375,0 -12.53125,-4.890625 -5.296875,-4.875 -6.859375,-12.96875 L 12.5,0 H 3.515625 L 18.3125,75.984375 h 8.984375 l -5.8125,-29.890625 q 3.421875,4.59375 8.734375,7.25 Q 35.546875,56 41.40625,56 q 7.234375,0 11.203125,-3.90625 3.984375,-3.90625 3.984375,-10.984375 0,-1.75 -0.21875,-3.75 -0.21875,-2 -0.65625,-4.34375 z"
         id="path7373" />
      <path
         d="m 18.3125,75.984375 h 8.984375 L 25.09375,64.59375 H 16.109375 Z M 14.203125,54.6875 H 23.1875 L 12.5,0 H 3.515625 Z"
         id="path7375" />
      <path
         d="M 42.28125,54.6875 40.921875,47.703125 H 23 l -5.8125,-29.6875 q -0.296875,-1.65625 -0.4375,-2.78125 -0.140625,-1.125 -0.140625,-1.75 0,-3.125 1.875,-4.546875 1.875,-1.421875 6.03125,-1.421875 H 33.59375 L 32.078125,0 h -8.59375 q -8,0 -11.9375,3.125 Q 7.625,6.25 7.625,12.59375 q 0,1.125 0.140625,2.46875 0.140625,1.34375 0.4375,2.953125 l 5.8125,29.6875 h -7.625 L 7.8125,54.6875 h 7.46875 l 3.03125,15.53125 h 8.984375 L 24.3125,54.6875 Z"
         id="path7377" />
      <path
         d="m 48.09375,32.234375 q 0.15625,0.78125 0.21875,1.609375 0.07813,0.828125 0.07813,1.65625 0,5.953125 -3.5,9.421875 -3.484375,3.46875 -9.484375,3.46875 -6.6875,0 -11.828125,-4.234375 -5.125,-4.21875 -7.75,-11.984375 z m 7.8125,-7.03125 H 14.109375 Q 13.8125,23.34375 13.71875,22.265625 13.625,21.1875 13.625,20.40625 q 0,-6.78125 4.171875,-10.5 4.171875,-3.703125 11.796875,-3.703125 5.859375,0 11.078125,1.3125 5.234375,1.328125 9.71875,3.859375 L 48.6875,2.484375 q -4.84375,-1.953125 -10,-2.921875 -5.140625,-0.984375 -10.46875,-0.984375 -11.375,0 -17.5,5.4375 -6.125,5.453125 -6.125,15.46875 0,8.546875 3.046875,15.890625 3.046875,7.34375 8.96875,13.109375 3.796875,3.609375 9.046875,5.5625 Q 30.90625,56 36.8125,56 q 9.28125,0 14.765625,-5.5625 5.5,-5.5625 5.5,-14.9375 0,-2.25 -0.296875,-4.8125 Q 56.5,28.125 55.90625,25.203125 Z"
         id="path7379" />
      <path
         d="M 30.421875,75.984375 V -13.1875 H 9.71875 v 6.984375 H 21.390625 V 69 H 9.71875 v 6.984375 z"
         id="path7381" />
    </defs>
    <g
       transform="matrix(0,-0.12,-0.12,0,21.956705,203.9148)"
       id="g5997">
      <use
         transform="translate(0,0.015625)"
         xlink:href="#DejaVuSans-91-6"
         id="use5971"
         x="0"
         y="0"
         width="100%"
         height="100%" />
      <use
         transform="translate(39.013672,0.015625)"
         xlink:href="#DejaVuSans-Oblique-108"
         id="use5973"
         x="0"
         y="0"
         width="100%"
         height="100%" />
      <use
         transform="translate(66.796875,0.015625)"
         xlink:href="#DejaVuSans-Oblique-119"
         id="use5975"
         x="0"
         y="0"
         width="100%"
         height="100%" />
      <use
         transform="translate(148.58398,0.015625)"
         xlink:href="#DejaVuSans-Oblique-104"
         id="use5977"
         x="0"
         y="0"
         width="100%"
         height="100%" />
      <use
         transform="translate(211.96289,0.015625)"
         xlink:href="#DejaVuSans-Oblique-105"
         id="use5979"
         x="0"
         y="0"
         width="100%"
         height="100%" />
      <use
         transform="translate(239.74609,0.015625)"
         xlink:href="#DejaVuSans-Oblique-116"
         id="use5981"
         x="0"
         y="0"
         width="100%"
         height="100%" />
      <use
         transform="translate(278.95508,0.015625)"
         xlink:href="#DejaVuSans-Oblique-101"
         id="use5983"
         x="0"
         y="0"
         width="100%"
         height="100%" />
      <use
         transform="translate(340.47852,0.015625)"
         xlink:href="#DejaVuSans-93-2"
         id="use5985"
         x="0"
         y="0"
         width="100%"
         height="100%" />
      <use
         transform="translate(379.49219,0.015625)"
         xlink:href="#DejaVuSans-32"
         id="use5987"
         x="0"
         y="0"
         width="100%"
         height="100%" />
      <use
         transform="translate(411.2793,0.015625)"
         xlink:href="#DejaVuSans-40"
         id="use5989"
         x="0"
         y="0"
         width="100%"
         height="100%" />
      <use
         transform="translate(450.29297,0.015625)"
         xlink:href="#DejaVuSans-181"
         id="use5991"
         x="0"
         y="0"
         width="100%"
         height="100%" />
      <use
         transform="translate(513.91602,0.015625)"
         xlink:href="#DejaVuSans-77"
         id="use5993"
         x="0"
         y="0"
         width="100%"
         height="100%" />
      <use
         transform="translate(600.19531,0.015625)"
         xlink:href="#DejaVuSans-41"
         id="use5995"
         x="0"
         y="0"
         width="100%"
         height="100%" />
    </g>
  </g>
</svg>
